HIERARCHY
ROOT Hips
{
	OFFSET 0.00000 0.00000 0.00000
	CHANNELS 6 Xposition Yposition Zposition Zrotation Yrotation Xrotation 
	JOINT LHipJoint
	{
		OFFSET 0 0 0
		CHANNELS 3 Zrotation Yrotation Xrotation
		JOINT LeftUpLeg
		{
			OFFSET 1.26600 -1.82114 0.91038
			CHANNELS 3 Zrotation Yrotation Xrotation
			JOINT LeftLeg
			{
				OFFSET 2.50076 -6.87080 0.00000
				CHANNELS 3 Zrotation Yrotation Xrotation
				JOINT LeftFoot
				{
					OFFSET 2.57364 -7.07102 0.00000
					CHANNELS 3 Zrotation Yrotation Xrotation
					JOINT LeftToeBase
					{
						OFFSET 0.13572 -0.37290 1.97004
						CHANNELS 3 Zrotation Yrotation Xrotation
						End Site
						{
							OFFSET 0.00000 -0.00000 1.01383
						}
					}
				}
			}
		}
	}
	JOINT RHipJoint
	{
		OFFSET 0 0 0
		CHANNELS 3 Zrotation Yrotation Xrotation
		JOINT RightUpLeg
		{
			OFFSET -1.20803 -1.82114 0.91038
			CHANNELS 3 Zrotation Yrotation Xrotation
			JOINT RightLeg
			{
				OFFSET -2.54916 -7.00377 0.00000
				CHANNELS 3 Zrotation Yrotation Xrotation
				JOINT RightFoot
				{
					OFFSET -2.56374 -7.04382 0.00000
					CHANNELS 3 Zrotation Yrotation Xrotation
					JOINT RightToeBase
					{
						OFFSET -0.23520 -0.64621 2.09921
						CHANNELS 3 Zrotation Yrotation Xrotation
						End Site
						{
							OFFSET -0.00000 -0.00000 1.10065
						}
					}
				}
			}
		}
	}
	JOINT LowerBack
	{
		OFFSET 0 0 0
		CHANNELS 3 Zrotation Yrotation Xrotation
		JOINT Spine
		{
			OFFSET 0.05492 2.10797 -0.12074
			CHANNELS 3 Zrotation Yrotation Xrotation
			JOINT Spine1
			{
				OFFSET 0.04577 2.11592 -0.04483
				CHANNELS 3 Zrotation Yrotation Xrotation
				JOINT Neck
				{
					OFFSET 0 0 0
					CHANNELS 3 Zrotation Yrotation Xrotation
					JOINT Neck1
					{
						OFFSET -0.10759 1.80167 0.15770
						CHANNELS 3 Zrotation Yrotation Xrotation
						JOINT Head
						{
							OFFSET 0.09237 1.77509 -0.40848
							CHANNELS 3 Zrotation Yrotation Xrotation
							End Site
							{
								OFFSET 0.03805 1.84093 -0.15754
							}
						}
					}
				}
				JOINT LeftShoulder
				{
					OFFSET 0 0 0
					CHANNELS 3 Zrotation Yrotation Xrotation
					JOINT LeftArm
					{
						OFFSET 3.42372 1.09575 -0.28209
						CHANNELS 3 Zrotation Yrotation Xrotation
						JOINT LeftForeArm
						{
							OFFSET 4.95681 -0.00000 0.00000
							CHANNELS 3 Zrotation Yrotation Xrotation
							JOINT LeftHand
							{
								OFFSET 3.40915 -0.00000 0.00000
								CHANNELS 3 Zrotation Yrotation Xrotation
								JOINT LeftFingerBase
								{
									OFFSET 0 0 0
									CHANNELS 3 Zrotation Yrotation Xrotation
									JOINT LeftHandIndex1
									{
										OFFSET 0.61640 -0.00000 0.00000
										CHANNELS 3 Zrotation Yrotation Xrotation
										End Site
										{
											OFFSET 0.49696 -0.00000 0.00000
										}
									}
								}
								JOINT LThumb
								{
									OFFSET 0 0 0
									CHANNELS 3 Zrotation Yrotation Xrotation
									End Site
									{
										OFFSET 0.50455 -0.00000 0.50455
									}
								}
							}
						}
					}
				}
				JOINT RightShoulder
				{
					OFFSET 0 0 0
					CHANNELS 3 Zrotation Yrotation Xrotation
					JOINT RightArm
					{
						OFFSET -3.24731 1.15872 -0.32221
						CHANNELS 3 Zrotation Yrotation Xrotation
						JOINT RightForeArm
						{
							OFFSET -5.35200 -0.00000 0.00000
							CHANNELS 3 Zrotation Yrotation Xrotation
							JOINT RightHand
							{
								OFFSET -3.43721 -0.00000 -0.00000
								CHANNELS 3 Zrotation Yrotation Xrotation
								JOINT RightFingerBase
								{
									OFFSET 0 0 0
									CHANNELS 3 Zrotation Yrotation Xrotation
									JOINT RightHandIndex1
									{
										OFFSET -0.72009 -0.00000 0.00000
										CHANNELS 3 Zrotation Yrotation Xrotation
										End Site
										{
											OFFSET -0.58056 -0.00000 0.00000
										}
									}
								}
								JOINT RThumb
								{
									OFFSET 0 0 0
									CHANNELS 3 Zrotation Yrotation Xrotation
									End Site
									{
										OFFSET -0.58942 -0.00000 0.58942
									}
								}
							}
						}
					}
				}
			}
		}
	}
}
MOTION
Frames: 13
Frame Time: 0.03125
0.00 0.00 0.00 303.7480 81.3878 306.7520 0.0000 0.0000 0.0000 -1.8626 -13.2852 -72.0225 21.3539 19.9560 93.9614 -0.5451 -22.2657 -11.2767 0.7155 5.4054 15.0687 0.0000 0.0000 0.0000 27.1577 -5.3442 15.5379 0.0000 0.0000 -0.0000 -2.2558 -5.0970 27.2869 -0.1823 -2.7503 7.5843 4.4521 2.3331 18.0210 1.3190 4.1911 2.5632 -2.1014 1.9945 -7.1036 -9.6668 -2.9077 -17.6794 6.8467 -2.4964 32.7579 4.1470 -1.0420 14.4603 0.0000 0.0000 0.0000 -85.6239 -5.7120 20.7139 13.3696 -21.8264 -2.5891 -0.0000 -0.0000 1.8180 19.5394 22.8189 7.8366 -7.1250 0.0000 -0.0000 -9.9598 53.7640 -2.1627 0.0000 0.0000 0.0000 87.0197 4.5868 32.1302 -20.8119 31.6082 -5.9511 0.0000 -0.0000 -12.1975 -19.3659 8.8422 -3.0926 7.1250 -0.0000 -0.0000 5.4211 -20.6356 3.1768
0.00 0.00 0.00 304.4920 80.2255 311.8680 0.0000 0.0000 0.0000 -2.8123 -13.6952 -65.3091 17.9112 19.8951 83.8826 -0.3071 -21.3809 -12.5588 1.0230 6.4344 18.0502 0.0000 0.0000 0.0000 26.8593 -3.6061 3.2194 -0.5485 -4.7444 13.1810 -3.0204 -8.4862 31.4349 -0.2763 -3.3812 9.3418 4.5216 2.5087 16.2549 1.1952 4.3099 2.0214 -2.2119 2.0405 -6.6992 -9.7000 -2.9792 -18.0940 7.2811 -2.8237 30.5835 4.1652 -1.1473 13.6306 0.0000 -0.0000 0.0000 -83.7048 -5.0853 27.5108 18.0026 -28.1605 -4.5505 -0.0000 0.0000 -6.2973 17.4629 21.3596 6.5364 -7.1250 0.0000 -0.0000 -11.4580 51.9140 -1.9720 0.0000 -0.0000 0.0000 85.9922 3.3695 36.9209 -21.0491 31.8856 -6.0759 0.0000 -0.0000 -13.4804 -15.9670 9.8837 -2.8117 7.1250 -0.0000 -0.0000 7.8447 -19.7561 4.7759
0.00 0.00 0.00 295.2260 77.7842 302.4420 0.0000 0.0000 0.0000 -1.3109 -13.9330 -56.5284 14.9640 19.3808 75.1283 -0.0025 -19.7316 -13.8648 0.5483 4.7439 13.1795 0.0000 0.0000 0.0000 30.2178 -2.3482 -3.9612 -2.6735 -10.1468 29.4533 -2.8611 -6.0728 30.7714 -0.2539 -3.2422 8.9537 6.1398 2.3437 16.8040 2.2027 4.5254 2.1088 -2.1200 2.1233 -6.8561 -9.5165 -3.2018 -17.5284 8.0851 -3.5233 30.1433 4.3209 -1.3281 13.4073 0.0000 0.0000 0.0000 -82.1176 -4.8715 32.4807 21.3964 -32.2881 -6.2603 -0.0000 0.0000 -7.2438 16.7327 18.8174 5.5387 -7.1250 0.0000 -0.0000 -11.2508 49.2346 -1.1885 0.0000 0.0000 0.0000 86.0444 2.8256 36.7463 -21.3465 32.2306 -6.2337 0.0000 -0.0000 -10.2341 -15.1930 10.3012 -2.7802 7.1250 -0.0000 -0.0000 8.3865 -19.3733 5.1851
0.00 0.00 0.00 307.1780 80.5232 314.4640 0.0000 0.0000 0.0000 -7.5931 -14.2786 -48.4540 11.7793 18.2958 65.2875 -0.0718 -17.9039 -11.9112 1.0917 6.6401 18.6534 0.0000 0.0000 0.0000 25.7905 -1.9610 -11.9365 -6.3804 -14.7871 46.4899 -2.0997 -7.0562 26.0836 -0.0171 -0.8440 2.3198 3.2816 2.0962 15.8805 1.5574 3.5571 1.9839 -0.9590 1.7109 -6.6812 -8.9191 -2.8314 -16.9365 6.9363 -2.8493 30.2034 3.8614 -1.1227 13.1982 0.0000 0.0000 0.0000 -83.4361 -4.9756 31.4662 22.9281 -34.0101 -7.0981 -0.0000 0.0000 -7.6172 18.7638 18.1128 6.0290 -7.1250 0.0000 -0.0000 -9.0928 48.8232 -0.8639 0.0000 0.0000 0.0000 85.9416 2.5788 35.0342 -21.5057 32.4139 -6.3188 0.0000 -0.0000 -12.5061 -17.0142 10.4601 -3.1798 7.1250 -0.0000 -0.0000 7.0962 -19.0974 4.4178
0.00 0.00 0.00 318.3190 82.2478 324.3750 0.0000 0.0000 0.0000 -12.9611 -12.8817 -38.0962 8.1586 16.2347 53.1321 -0.1034 -16.0005 -10.1309 0.8969 6.0359 16.8885 0.0000 0.0000 0.0000 22.9592 -1.7588 -18.1022 -10.8897 -17.8807 62.4229 -0.9522 -7.4215 17.4428 -0.9662 -6.2583 17.5356 1.1892 1.9754 15.3393 1.2505 2.9925 2.0197 0.0329 1.4853 -6.4532 -9.0884 -3.0203 -16.6533 7.0198 -3.0793 31.3825 3.9414 -1.2224 13.6717 0.0000 -0.0000 0.0000 -84.1444 -4.7977 31.8754 24.4129 -35.5979 -7.9457 -0.0000 0.0000 -8.9742 18.7545 18.3191 6.0916 -7.1250 0.0000 -0.0000 -9.1632 49.0334 -0.9185 0.0000 -0.0000 0.0000 86.6403 2.2337 30.7615 -21.1230 31.9716 -6.1149 0.0000 -0.0000 -13.3146 -20.7689 10.6860 -4.0225 7.1250 -0.0000 -0.0000 4.4434 -18.5894 2.8035
0.00 0.00 0.00 329.0480 82.9820 332.7010 0.0000 0.0000 0.0000 -17.5327 -8.7664 -24.5654 4.1737 12.3880 37.1188 -0.2611 -14.3043 -6.6364 0.5524 4.7613 13.2289 0.0000 0.0000 0.0000 21.4146 0.3131 -22.3919 -14.5512 -19.2728 73.8810 -0.0046 -0.2076 1.2279 -0.0241 -1.0024 2.7554 0.1491 1.5998 15.0123 1.2350 2.3204 2.1877 0.7533 1.1851 -6.1362 -9.2399 -2.8074 -15.8313 7.2805 -2.8109 32.6090 4.1792 -1.0792 14.0058 -0.0000 0.0000 0.0000 -84.5378 -4.0173 32.7065 25.2144 -36.4223 -8.4169 -0.0000 0.0000 -9.3698 19.1048 18.2584 6.1935 -7.1250 0.0000 -0.0000 -8.8100 49.0240 -0.8805 -0.0000 0.0000 0.0000 86.8827 1.6401 28.3855 -20.8584 31.6626 -5.9754 0.0000 -0.0000 -11.8353 -18.8338 10.8797 -3.6836 7.1250 -0.0000 -0.0000 5.8123 -18.5342 3.6823
0.00 0.00 0.00 -70.5596 -83.4358 429.5830 0.0000 0.0000 0.0000 -4.6989 -2.9593 -37.5965 14.2662 19.1928 73.0158 0.0348 -10.1064 14.9415 0.3043 3.5467 9.8048 0.0000 0.0000 0.0000 32.2642 -2.9274 -10.4408 -3.6844 -11.7281 34.7769 -1.5577 9.4432 -22.3861 -0.0380 -1.2578 3.4585 7.7263 0.7775 8.9780 4.2622 1.5733 3.2884 -0.0637 0.7081 -1.5054 -8.6280 -1.4752 -14.0743 1.1215 -1.0692 33.4852 1.7025 -1.7529 13.7906 0.0000 0.0000 0.0000 -89.1216 3.5757 25.6901 20.4576 -31.1897 -5.7665 -0.0000 0.0000 -2.9696 15.4465 19.6130 5.2991 -7.1250 0.0000 -0.0000 -12.7552 49.8358 -1.5429 0.0000 0.0000 0.0000 84.8589 0.4115 21.2733 -15.1621 24.3715 -3.2926 0.0000 -0.0000 -13.0344 -21.7414 10.3736 -4.1072 7.1250 -0.0000 -0.0000 3.7476 -18.8443 2.3413
0.00 0.00 0.00 -83.1136 -83.4613 440.8670 0.0000 0.0000 0.0000 -0.4993 -1.8223 -52.0816 23.1727 19.7569 99.3125 -0.4122 -11.6308 1.3039 0.2977 3.5082 9.6970 0.0000 0.0000 0.0000 33.0758 -2.9605 -5.8406 -2.7790 -10.3283 30.0467 -1.2934 9.3633 -20.4217 -0.0386 -1.2675 3.4852 7.7869 1.0350 9.7846 4.6454 1.9292 3.8292 0.2583 0.8767 -1.3727 -8.9370 -1.1709 -13.5894 1.1070 -0.6563 34.1140 1.8150 -1.6616 13.9410 -0.0000 -0.0000 0.0000 -90.2840 4.8037 24.0436 21.1681 -32.0240 -6.1388 -0.0000 0.0000 -4.1639 18.1534 19.9969 6.3976 -7.1250 0.0000 -0.0000 -10.2845 50.6518 -1.4455 -0.0000 -0.0000 0.0000 83.7117 1.5251 17.2628 -12.7380 20.9022 -2.3590 0.0000 -0.0000 -5.6100 -20.2183 11.0976 -4.0549 7.1250 -0.0000 -0.0000 4.8406 -18.1979 3.0979
0.00 0.00 0.00 -94.4406 -84.0608 451.2650 0.0000 0.0000 0.0000 0.9368 0.4835 -62.6104 28.3130 18.2552 115.0069 -0.8384 -19.5207 -4.8495 0.0018 0.2753 0.7564 0.0000 0.0000 0.0000 32.3922 -3.0391 -2.6735 -2.3384 -9.5379 27.4930 -1.1771 9.1553 -19.4888 -0.0391 -1.2755 3.5071 8.1042 1.3321 10.4346 4.4308 2.3805 4.1428 -0.1976 1.1045 -1.3519 -9.3287 -1.1582 -13.4376 1.3064 -0.6570 34.5938 1.9644 -1.7172 14.1280 0.0000 -0.0000 0.0000 -90.9383 5.4407 22.6038 19.8597 -30.4729 -5.4600 -0.0000 0.0000 -3.4700 17.0929 20.0677 6.0232 -7.1250 0.0000 -0.0000 -11.3379 50.5515 -1.5686 0.0000 -0.0000 0.0000 83.2357 1.0659 15.5505 -12.4032 20.4066 -2.2409 0.0000 -0.0000 -5.4366 -20.7961 11.0856 -4.1765 7.1250 -0.0000 -0.0000 4.4338 -18.1636 2.8393
0.00 0.00 0.00 -124.0140 -84.3842 490.9270 0.0000 0.0000 0.0000 -12.9982 -10.7999 -38.5921 9.8703 17.3363 59.0541 0.5367 -17.0240 -16.6527 0.6587 5.1910 14.4542 0.0000 0.0000 0.0000 21.5358 2.3773 -25.2334 -15.5078 -19.5091 76.7615 -1.6004 -15.1711 23.5310 -0.6660 -5.2189 14.5340 1.3879 2.2727 16.8425 1.5574 3.1784 2.8698 0.1817 1.4579 -6.3702 -8.1487 -2.0416 -17.7568 4.9318 -2.2729 27.1312 2.8622 -1.3676 12.0147 0.0000 0.0000 0.0000 -85.3652 0.7329 30.8511 19.6865 -30.2628 -5.3725 -0.0000 0.0000 -5.3738 17.2418 20.4830 6.1981 -7.1250 0.0000 -0.0000 -11.3440 50.9942 -1.6939 0.0000 0.0000 0.0000 86.9384 4.0321 28.8284 -23.0072 34.0966 -7.1423 0.0000 -0.0000 -13.5613 -22.8165 10.0325 -4.1917 7.1250 -0.0000 -0.0000 2.9744 -19.1231 1.8383
0.00 0.00 0.00 -133.8790 -85.3090 498.1840 0.0000 0.0000 0.0000 -17.0034 -8.5184 -25.2208 6.2825 14.6966 46.1052 0.4920 -14.5659 -15.1305 0.9387 6.1711 17.2815 0.0000 0.0000 0.0000 18.4999 2.8524 -34.2865 -21.3038 -19.9592 93.8145 -0.2610 -6.7645 9.5889 -0.7708 -5.6060 15.6455 0.1381 2.1310 16.5536 1.8074 2.8098 2.6125 1.2379 1.3164 -6.5642 -8.2006 -1.7272 -17.7195 4.4600 -1.8531 29.4025 2.7952 -1.3365 12.8822 -0.0000 -0.0000 0.0000 -86.0428 0.8909 27.9303 20.3051 -31.0081 -5.6877 -0.0000 0.0000 -8.6932 20.3214 19.8996 7.1844 -7.1250 0.0000 -0.0000 -8.1334 50.9097 -1.1910 -0.0000 -0.0000 0.0000 86.0346 2.8581 26.2991 -21.8009 32.7513 -6.4778 0.0000 -0.0000 -12.7306 -23.0634 9.7365 -4.1186 7.1250 -0.0000 -0.0000 2.7888 -19.4224 1.7048
0.00 0.00 0.00 -162.2940 -87.8750 524.1840 0.0000 0.0000 0.0000 -22.0291 -5.8416 -9.6721 2.7263 10.2382 29.7516 0.2961 -11.8518 -11.9760 1.0870 6.6261 18.6123 0.0000 0.0000 0.0000 15.1450 4.3479 -43.9437 -22.5738 -19.8404 97.5444 0.0027 0.9911 -0.0092 -0.3863 -3.9914 11.0526 -1.7005 1.5542 14.7926 1.6472 1.7796 2.2528 2.3603 0.8742 -6.0083 -8.5886 -1.2802 -15.9103 4.2072 -1.3646 30.7931 2.8555 -1.3033 13.0376 0.0000 -0.0000 0.0000 -86.1576 1.6527 26.9337 20.9484 -31.7681 -6.0227 -0.0000 0.0000 -8.8236 19.1139 19.4986 6.5983 -7.1250 0.0000 -0.0000 -9.1847 50.2990 -1.2085 0.0000 -0.0000 0.0000 84.6743 0.9908 24.0862 -19.9995 30.6418 -5.5311 0.0000 -0.0000 -11.4875 -21.9832 9.5354 -3.8259 7.1250 -0.0000 -0.0000 3.5537 -19.7222 2.1501
0.00 0.00 0.00 -343.9040 -87.1041 702.3780 0.0000 0.0000 0.0000 -24.1992 -0.0104 3.4322 1.8642 8.5774 24.4820 0.4891 -11.1850 -13.7452 0.3953 4.0370 11.1808 0.0000 0.0000 0.0000 16.6608 4.7068 -44.8924 -10.2711 -17.5595 60.3908 -0.0816 -3.2948 5.2358 -0.0694 -1.6994 4.6756 -3.0175 0.0771 11.5082 1.9352 -0.2653 2.5459 3.7686 -0.1386 -3.7653 -8.4839 -1.0056 -13.9032 4.2118 -1.5359 33.3551 2.8458 -1.5396 13.7077 -0.0000 0.0000 0.0000 -85.5907 2.0711 26.9088 21.1941 -32.0542 -6.1526 -0.0000 0.0000 -7.9489 17.0189 18.7167 5.6097 -7.1250 0.0000 -0.0000 -10.9449 49.1763 -1.1395 -0.0000 0.0000 0.0000 83.0164 -1.9025 22.1137 -20.0230 30.6700 -5.5431 0.0000 -0.0000 -13.2772 -21.2049 9.4248 -3.6352 7.1250 -0.0000 -0.0000 4.1077 -19.8973 2.4708
